# Blender v2.74 (sub 0) OBJ File: 'Projector.blend'
# www.blender.org
mtllib Projector2.mtl
o instance_0.005_ID38
v 0.592857 0.366922 0.592312
v 0.408624 0.366922 0.408080
v 0.408624 0.366922 0.592312
v 0.592857 0.366922 0.408080
v 0.592857 0.366922 0.408080
v 0.408624 0.643093 0.408080
v 0.408624 0.366922 0.408080
v 0.592857 0.643093 0.408080
v 0.408624 0.366922 0.592312
v 0.408624 0.643093 0.408080
v 0.408624 0.643093 0.592312
v 0.408624 0.366922 0.408080
v 0.408624 0.366922 0.592312
v 0.592857 0.643093 0.592312
v 0.592857 0.366922 0.592312
v 0.408624 0.643093 0.592312
v 0.592857 0.643093 0.408080
v 0.592857 0.366922 0.592312
v 0.592857 0.643093 0.592312
v 0.592857 0.366922 0.408080
v 0.773160 0.643093 0.772615
v 0.637433 0.301313 1.000418
v 1.000962 0.301313 1.000418
v 0.637433 0.643093 0.772615
v 0.637433 0.301313 0.772615
v 0.637433 0.301313 1.000418
v 0.637433 0.643093 0.772615
v 1.000962 0.301313 0.636888
v 0.773160 0.643093 0.772615
v 1.000962 0.301313 1.000418
v 0.773160 0.643093 0.636888
v 0.773160 0.643093 0.636888
v 1.000962 0.301313 0.636888
v 0.773160 0.301313 0.636888
v 1.000962 0.301313 -0.000025
v 0.773160 0.643093 0.373560
v 1.000962 0.301313 0.373560
v 0.773160 0.643093 0.227778
v 0.773160 0.643093 0.373560
v 0.773160 0.301313 0.373560
v 1.000962 0.301313 0.373560
v 0.637433 0.643093 0.227778
v 1.000962 0.301313 -0.000025
v 0.637433 0.301313 -0.000025
v 0.773160 0.643093 0.227778
v 0.637433 0.301313 -0.000025
v 0.637433 0.301313 0.227778
v 0.637433 0.643093 0.227778
v 0.228321 0.643093 0.227778
v 0.364049 0.301313 -0.000025
v 0.000518 0.301313 -0.000025
v 0.364049 0.643093 0.227778
v 0.364049 0.301313 -0.000025
v 0.364049 0.643093 0.227778
v 0.364049 0.301313 0.227778
v 0.228321 0.643093 0.227778
v 0.000518 0.301313 0.363505
v 0.228321 0.643093 0.363505
v 0.000518 0.301313 -0.000025
v 0.228321 0.643093 0.363505
v 0.000518 0.301313 0.363505
v 0.228321 0.301313 0.363505
v 0.228321 0.643093 0.772615
v 0.000518 0.301313 0.636888
v 0.000518 0.301313 1.000418
v 0.228321 0.643093 0.636888
v 0.228321 0.643093 0.636888
v 0.228321 0.301313 0.636888
v 0.000518 0.301313 0.636888
v 0.364049 0.643093 0.772615
v 0.000518 0.301313 1.000418
v 0.364049 0.301313 1.000418
v 0.228321 0.643093 0.772615
v 0.364049 0.301313 0.772615
v 0.364049 0.643093 0.772615
v 0.364049 0.301313 1.000418
v 0.000518 0.301313 0.636888
v 0.000518 0.000624 1.000418
v 0.000518 0.301313 1.000418
v 0.000518 0.000624 -0.000025
v 0.000518 0.301313 0.363505
v 0.000518 0.301313 -0.000025
v 0.228321 0.301313 0.636888
v 0.000518 0.301313 0.636888
v 0.228321 0.301313 0.772615
v 0.364049 0.301313 1.000418
v 0.000518 0.301313 1.000418
v 0.364049 0.301313 0.772615
v 0.228321 0.301313 0.636888
v 0.000518 0.301313 0.363505
v 0.000518 0.301313 0.636888
v 0.228321 0.301313 0.363505
v 0.228321 0.301313 0.363505
v 0.000518 0.301313 -0.000025
v 0.000518 0.301313 0.363505
v 0.228321 0.301313 0.227778
v 0.364049 0.301313 -0.000025
v 0.364049 0.301313 0.227778
v 0.000518 0.301313 -0.000025
v 1.000962 0.000624 -0.000025
v 0.000518 0.000624 -0.000025
v 1.000962 0.301313 -0.000025
v 0.364049 0.301313 -0.000025
v 0.637433 0.301313 -0.000025
v 1.000962 0.000624 -0.000025
v 0.000518 0.000624 1.000418
v 0.000518 0.000624 -0.000025
v 1.000962 0.000624 1.000418
v 1.000962 0.301313 1.000418
v 0.000518 0.000624 1.000418
v 1.000962 0.000624 1.000418
v 0.000518 0.301313 1.000418
v 0.637433 0.301313 1.000418
v 0.364049 0.301313 1.000418
v 0.228321 0.643093 0.636888
v 0.228321 0.301313 0.772615
v 0.228321 0.643093 0.772615
v 0.228321 0.301313 0.636888
v 0.637433 0.301313 1.000418
v 0.364049 0.301313 0.772615
v 0.364049 0.301313 1.000418
v 0.637433 0.301313 0.772615
v 0.364049 0.643093 0.772615
v 0.228321 0.301313 0.772615
v 0.364049 0.301313 0.772615
v 0.228321 0.643093 0.772615
v 0.228321 0.301313 0.363505
v 0.228321 0.643093 0.363505
v 0.228321 0.301313 0.227778
v 0.228321 0.643093 0.227778
v 0.228321 0.643093 0.227778
v 0.364049 0.301313 0.227778
v 0.228321 0.301313 0.227778
v 0.364049 0.643093 0.227778
v 0.637433 0.301313 0.227778
v 0.364049 0.301313 -0.000025
v 0.364049 0.301313 0.227778
v 0.637433 0.301313 -0.000025
v 1.000962 0.301313 0.373560
v 0.773160 0.301313 0.227778
v 0.773160 0.301313 0.373560
v 0.637433 0.301313 -0.000025
v 0.637433 0.301313 0.227778
v 1.000962 0.301313 -0.000025
v 1.000962 0.000624 1.000418
v 1.000962 0.301313 0.636888
v 1.000962 0.301313 1.000418
v 1.000962 0.000624 -0.000025
v 1.000962 0.301313 0.373560
v 1.000962 0.301313 -0.000025
v 1.000962 0.301313 1.000418
v 0.637433 0.301313 0.772615
v 0.637433 0.301313 1.000418
v 0.773160 0.301313 0.772615
v 0.773160 0.301313 0.636888
v 1.000962 0.301313 0.636888
v 0.364049 0.643093 0.772615
v 0.228321 0.643093 0.636888
v 0.228321 0.643093 0.772615
v 0.228321 0.643093 0.363505
v 0.228321 0.643093 0.227778
v 0.364049 0.643093 0.227778
v 0.408624 0.643093 0.592312
v 0.637433 0.643093 0.772615
v 0.592857 0.643093 0.592312
v 0.592857 0.643093 0.408080
v 0.408624 0.643093 0.408080
v 0.637433 0.643093 0.227778
v 0.773160 0.643093 0.772615
v 0.773160 0.643093 0.227778
v 0.773160 0.643093 0.636888
v 0.773160 0.643093 0.373560
v 0.637433 0.643093 0.772615
v 0.364049 0.301313 0.772615
v 0.637433 0.301313 0.772615
v 0.364049 0.643093 0.772615
v 0.364049 0.301313 0.227778
v 0.637433 0.643093 0.227778
v 0.637433 0.301313 0.227778
v 0.364049 0.643093 0.227778
v 0.637433 0.301313 0.227778
v 0.773160 0.643093 0.227778
v 0.773160 0.301313 0.227778
v 0.637433 0.643093 0.227778
v 0.773160 0.301313 0.227778
v 0.773160 0.643093 0.373560
v 0.773160 0.301313 0.373560
v 0.773160 0.643093 0.227778
v 1.000962 0.301313 0.636888
v 0.773160 0.301313 0.373560
v 0.773160 0.301313 0.636888
v 1.000962 0.301313 0.373560
v 0.773160 0.301313 0.772615
v 0.773160 0.643093 0.636888
v 0.773160 0.643093 0.772615
v 0.773160 0.301313 0.636888
v 0.773160 0.301313 0.772615
v 0.637433 0.643093 0.772615
v 0.637433 0.301313 0.772615
v 0.773160 0.643093 0.772615
vt 0.504616 0.910532
vt 0.576237 0.982695
vt 0.504616 0.982695
vt 0.576237 0.910532
vt 0.187310 1.000000
vt 0.258932 0.892941
vt 0.258932 1.000000
vt 0.187310 0.892941
vt 0.292057 0.883041
vt 0.363678 0.990340
vt 0.292057 0.990340
vt 0.363678 0.883041
vt 0.115689 1.000000
vt 0.115689 0.892941
vt 0.435299 0.883041
vt 0.435299 0.990340
vt 0.504874 0.249474
vt 0.620822 0.391866
vt 0.504874 0.391866
vt 0.620822 0.000000
vt 0.504874 0.142392
vt 0.504874 0.000000
vt 0.789276 0.000000
vt 0.877835 0.000000
vt 0.789276 0.053163
vt 0.736511 0.142392
vt 0.877835 0.142392
vt 0.736511 0.053163
vt 0.736511 0.391866
vt 0.825071 0.284784
vt 0.825071 0.391866
vt 0.736511 0.284784
vt 0.168453 0.892941
vt 0.257013 0.750549
vt 0.257013 0.892941
vt 0.168453 0.839778
vt 0.115689 0.750549
vt 0.115689 0.839778
vt 0.000000 0.783733
vt 0.115689 0.391867
vt 0.115689 0.783733
vt 0.000000 0.391867
vt 0.000000 0.000000
vt 0.388926 0.391867
vt 0.388926 0.000000
vt 0.736511 0.000000
vt 0.459289 0.552112
vt 0.591082 0.605276
vt 0.459289 0.605276
vt 0.591082 0.552112
vt 0.877835 0.159737
vt 0.966394 0.266820
vt 0.877835 0.266820
vt 0.966394 0.159737
vt 0.820965 0.826437
vt 0.873730 0.958930
vt 0.820965 0.958930
vt 0.873730 0.826437
vt 0.591082 0.445030
vt 0.459289 0.445030
vt 0.591082 0.391867
vt 0.459289 0.391867
vt 0.947236 0.538197
vt 1.000000 0.670690
vt 0.947236 0.670690
vt 1.000000 0.538197
vt 0.873730 0.858164
vt 0.962289 0.965247
vt 0.873730 0.965247
vt 0.962289 0.858164
vt 0.732406 0.538197
vt 0.643846 0.595299
vt 0.643846 0.538197
vt 0.591082 0.684528
vt 0.591082 0.595299
vt 0.732406 0.684528
vt 0.388926 0.142392
vt 0.388927 0.245536
vt 0.736511 0.231621
vt 0.789276 0.231621
vt 0.789276 0.284784
vt 0.877835 0.284784
vt 0.327497 0.445030
vt 0.274732 0.391867
vt 0.327496 0.391867
vt 0.168453 0.391867
vt 0.115689 0.445030
vt 0.257403 0.462490
vt 0.327497 0.552113
vt 0.257403 0.534653
vt 0.185782 0.534653
vt 0.185782 0.462490
vt 0.115689 0.552113
vt 0.327497 0.605276
vt 0.115689 0.605276
vt 0.292057 0.750549
vt 0.398336 0.883041
vt 0.398336 0.750549
vt 0.504616 0.750549
vt 0.504616 0.883041
vt 0.947236 0.803182
vt 1.000000 0.803182
vt 0.459289 0.448969
vt 0.327497 0.448969
vt 0.877835 0.369963
vt 0.966394 0.369963
vt 0.679641 0.962293
vt 0.732406 0.829801
vt 0.732406 0.962293
vt 0.679641 0.829801
vt 0.679641 0.684528
vt 0.591082 0.829801
vt 0.873730 0.587964
vt 0.947235 0.698181
vt 0.873730 0.538197
vt 0.820965 0.682317
vt 0.873730 0.682317
vt 0.948899 0.376249
vt 0.948899 0.535987
vt 0.875444 0.486144
vt 0.734121 0.538197
vt 0.734121 0.391867
vt 0.591082 0.448969
vt 0.732406 0.958930
vt 0.257013 0.605276
vt 0.309777 0.605276
vt 0.873730 0.698181
vt 0.947236 0.747947
vt 0.451101 0.750549
vt 0.398336 0.605276
vt 0.539660 0.605276
vt 0.578121 0.750549
vt 0.578121 0.910532
vt 0.504616 0.800315
vt 0.786885 0.391867
vt 0.734121 0.535987
vt 0.875444 0.535987
vt 0.951290 0.000000
vt 0.951290 0.159737
vt 0.877835 0.109894
vt 0.732406 0.826437
vt 0.591082 0.962293
vt 0.204248 0.750549
vt 0.000000 0.893950
vt 0.073506 0.783733
vt 0.073506 0.943717
vn 0.000000 1.000000 0.000000
vn 0.000000 0.000000 1.000000
vn 1.000000 0.000000 0.000000
vn 0.000000 0.000000 -1.000000
vn -1.000000 0.000000 0.000000
vn 0.000000 -1.000000 -0.000000
vn 0.000000 0.554600 0.832100
vn 0.832100 0.554600 0.000000
vn 0.000000 0.554600 -0.832100
vn -0.832100 0.554600 0.000000
usemtl __auto_
s off
f 1/1/1 2/2/1 3/3/1
f 2/2/1 1/1/1 4/4/1
f 5/5/2 6/6/2 7/7/2
f 6/6/2 5/5/2 8/8/2
f 9/9/3 10/10/3 11/11/3
f 10/10/3 9/9/3 12/12/3
f 13/13/4 14/8/4 15/5/4
f 14/8/4 13/13/4 16/14/4
f 17/15/5 18/10/5 19/12/5
f 18/10/5 17/15/5 20/16/5
f 77/17/5 78/18/5 79/19/5
f 78/18/5 77/17/5 80/20/5
f 80/20/5 77/17/5 81/21/5
f 80/20/5 81/21/5 82/22/5
f 83/23/1 84/24/1 85/25/1
f 86/26/1 84/24/1 87/27/1
f 84/24/1 86/26/1 85/25/1
f 85/25/1 86/26/1 88/28/1
f 89/29/1 90/30/1 91/31/1
f 90/30/1 89/29/1 92/32/1
f 93/33/1 94/34/1 95/35/1
f 94/34/1 93/33/1 96/36/1
f 94/34/1 96/36/1 97/37/1
f 97/37/1 96/36/1 98/38/1
f 99/39/4 100/40/4 101/41/4
f 100/40/4 99/39/4 102/42/4
f 102/43/2 99/43/2 103/43/2
f 102/43/4 103/43/4 104/43/4
f 105/43/6 106/44/6 107/42/6
f 106/44/6 105/43/6 108/45/6
f 109/46/2 110/18/2 111/20/2
f 110/18/2 109/46/2 112/29/2
f 112/43/4 109/43/4 113/43/4
f 112/43/2 113/43/2 114/43/2
f 115/47/5 116/48/5 117/49/5
f 116/48/5 115/47/5 118/50/5
f 119/51/1 120/52/1 121/53/1
f 120/52/1 119/51/1 122/54/1
f 123/55/2 124/56/2 125/57/2
f 124/56/2 123/55/2 126/58/2
f 115/47/5 127/59/5 118/50/5
f 127/59/5 115/47/5 128/60/5
f 128/60/5 129/61/5 127/59/5
f 129/61/5 128/60/5 130/62/5
f 131/63/4 132/64/4 133/65/4
f 132/64/4 131/63/4 134/66/4
f 135/67/1 136/68/1 137/69/1
f 136/68/1 135/67/1 138/70/1
f 139/71/1 140/72/1 141/73/1
f 140/72/1 142/74/1 143/75/1
f 142/74/1 140/72/1 144/76/1
f 144/76/1 140/72/1 139/71/1
f 145/22/3 146/77/3 147/45/3
f 146/77/3 145/22/3 148/19/3
f 146/77/3 148/19/3 149/78/3
f 149/78/3 148/19/3 150/44/3
f 151/27/1 152/79/1 153/26/1
f 152/79/1 151/27/1 154/80/1
f 154/80/1 151/27/1 155/81/1
f 155/81/1 151/27/1 156/82/1
f 157/83/1 158/84/1 159/85/1
f 158/84/1 157/83/1 160/86/1
f 160/86/1 157/83/1 161/40/1
f 161/40/1 157/83/1 162/87/1
f 162/87/1 157/83/1 163/88/1
f 163/88/1 157/83/1 164/89/1
f 163/88/1 164/89/1 165/90/1
f 165/90/1 164/89/1 166/91/1
f 162/87/1 167/92/1 168/93/1
f 167/92/1 162/87/1 163/88/1
f 168/93/1 167/92/1 166/91/1
f 168/93/1 166/91/1 164/89/1
f 168/93/1 164/89/1 169/94/1
f 168/93/1 169/94/1 170/95/1
f 170/43/6 169/43/6 171/43/6
f 170/43/2 171/43/2 172/43/2
f 173/96/2 174/97/2 175/9/2
f 174/97/2 173/96/2 176/98/2
f 177/99/4 178/97/4 179/98/4
f 178/97/4 177/99/4 180/100/4
f 181/101/4 182/64/4 183/102/4
f 182/64/4 181/101/4 184/65/4
f 185/85/3 186/103/3 187/104/3
f 186/103/3 185/85/3 188/62/3
f 189/105/1 190/52/1 191/106/1
f 190/52/1 189/105/1 192/53/1
f 193/94/3 194/47/3 195/49/3
f 194/47/3 193/94/3 196/89/3
f 197/107/2 198/108/2 199/109/2
f 198/108/2 197/107/2 200/110/2
f 196/89/3 186/103/3 194/47/3
f 186/103/3 196/89/3 187/104/3
usemtl material
f 21/111/7 22/108/7 23/112/7
f 22/108/7 21/111/7 24/76/7
f 25/113/5 26/63/5 27/114/5
f 28/115/8 29/116/8 30/71/8
f 29/116/8 28/115/8 31/117/8
f 32/118/4 33/119/4 34/120/4
f 35/121/8 36/61/8 37/122/8
f 36/61/8 35/121/8 38/123/8
f 39/55/2 40/57/2 41/124/2
f 42/125/9 43/98/9 44/34/9
f 43/98/9 42/125/9 45/126/9
f 46/127/5 47/128/5 48/67/5
f 49/129/9 50/130/9 51/131/9
f 50/130/9 49/129/9 52/98/9
f 53/132/3 54/133/3 55/134/3
f 56/135/10 57/136/10 58/122/10
f 57/136/10 56/135/10 59/137/10
f 60/138/2 61/139/2 62/140/2
f 63/116/10 64/58/10 65/141/10
f 64/58/10 63/116/10 66/117/10
f 67/110/4 68/107/4 69/142/4
f 70/34/7 71/95/7 72/125/7
f 71/95/7 70/34/7 73/143/7
f 74/144/3 75/145/3 76/146/3
